# xmcd
#
# Track frame offsets: 
#        150
#        11781
#        28586
#        44402
#        59039
#        72277
#        87637
#        101633
#        117078
#        131525
#        142374
#        153974
#        170129
#        183926
#        198361
#        212420
#        231332
#        246310
#        264715
#        278183
#        291319
#        302704
#        319960
#        335736
#
# Disc length: 4692 seconds
#
# Revision: 5
# Processed by: cddbd v1.5.2PL0 Copyright (c) Steve Scherf et al.
# Submitted via: ExactAudioCopyFreeDBPlugin 1.0
#
DISCID=81125218
DTITLE=Glen Campbell - 1999 - Reunited With Jimmy Webb [1974-1988]
DYEAR=1999
DGENRE=Country
TTITLE0=Roll Me Easy
TTITLE1=Just This One Time
TTITLE2=You Might As Well Smile
TTITLE3=Wishing Now
TTITLE4=About The Ocean
TTITLE5=Ocean In His Eyes
TTITLE6=The Moon's A Harsh Mistress
TTITLE7=I Keep It Hid
TTITLE8=Adoration
TTITLE9=It's A Sin [When You Love Somebody]
TTITLE10=Christiaan No
TTITLE11=Early Morning Song
TTITLE12=Highwayman
TTITLE13=Love Song
TTITLE14=In Cars
TTITLE15=Still Within The Sound Of My Voice
TTITLE16=For Sure, For Certain, Forever, For Always
TTITLE17=Lightning In A Bottle
TTITLE18=If These Walls Could Speak
TTITLE19=More Than Enough
TTITLE20=Brand New Eyes
TTITLE21=Light Years
TTITLE22=Almost Alright Again
TTITLE23=Our Movie
EXTD=YEAR: 1999 ID3G: 2
EXTT0=
EXTT1=
EXTT2=
EXTT3=
EXTT4=
EXTT5=
EXTT6=
EXTT7=
EXTT8=
EXTT9=
EXTT10=
EXTT11=
EXTT12=
EXTT13=
EXTT14=
EXTT15=
EXTT16=
EXTT17=
EXTT18=
EXTT19=
EXTT20=
EXTT21=
EXTT22=
EXTT23=
PLAYORDER=
